# xmcd
#
# Track frame offsets: 
#        150
#        15326
#        33655
#        59278
#        75545
#
# Disc length: 1213 seconds
#
# Revision: 0
# Processed by: cddbd v1.5.2PL0 Copyright (c) Steve Scherf et al.
# Submitted via: ExactAudioCopyFreeDBPlugin 1.0
#
DISCID=3004bb05
DTITLE=Erica Sunshine Lee - Southern Amendment
DYEAR=2015
DGENRE=Country
TTITLE0=Mud On My Boots
TTITLE1=Another Sad Love Song
TTITLE2=Leaving Atlanta
TTITLE3=Girls With Guns
TTITLE4=Drinking And Praying
EXTD=
EXTT0=
EXTT1=
EXTT2=
EXTT3=
EXTT4=
PLAYORDER=
